# xmcd
#
# Track frame offsets:
#	150
#	13997
#	22815
#	35504
#	42029
#	63260
#	77081
#	88937
#	103184
#	113803
#	124991
#	136463
#
# Disc length: 1932 seconds
#
# Revision: 0
# Processed by: cddbd v1.5.2PL0 Copyright (c) Steve Scherf et al.
# Submitted via: EasyCDDAExtractor 10.0.3.1
#
DISCID=9d078a0c
DTITLE=Pipoka - Tiskiallasblues (Juba V&W)
DYEAR=2013
DGENRE=Folk-Rock
TTITLE0=Jumppahumppa
TTITLE1=Bodypump
TTITLE2=Biologinen kello
TTITLE3=Leivo mulle pullaa
TTITLE4=Tiskiallasblues
TTITLE5=Kyyneleit‰ spyd‰riss‰
TTITLE6=Porvoon laulava purjo
TTITLE7=Dioksiini
TTITLE8=Viimeinen varoitus
TTITLE9=Aisaa
TTITLE10=Pierett‰‰
TTITLE11=Sikapossun iltalaulu
EXTD=
EXTT0=
EXTT1=
EXTT2=
EXTT3=
EXTT4=
EXTT5=
EXTT6=
EXTT7=
EXTT8=
EXTT9=
EXTT10=
EXTT11=
PLAYORDER=
